<?xml version="1.0" encoding="utf-8"?>
<!-- Generator: Adobe Illustrator 23.0.3, SVG Export Plug-In . SVG Version: 6.00 Build 0)  -->
<svg version="1.1" id="Layer_1" xmlns="http://www.w3.org/2000/svg" xmlns:xlink="http://www.w3.org/1999/xlink" x="0px" y="0px"
	 viewBox="0 0 39 45.4" style="enable-background:new 0 0 39 45.4;" xml:space="preserve">
<title>logo-thumb-white</title>
<path d="M18.3,40.9c-0.3,0.1-0.6,0-0.9-0.1c0.2-0.2,0.3-0.5,0.4-0.7h-0.2c0,0-0.3-0.1-0.5-0.2l0,0l-0.2-0.1c1.3-0.9,2.2-2.1,2.8-3.5
	c0,0,0-0.1,0-0.1c0,0-0.1-0.1-0.1-0.1l-0.7-0.1c0.5-0.3,0.7-0.8,0.8-1.4h-0.1h-0.2c-0.3,0-0.6-0.1-0.8-0.1c0,0,0,0,0,0l0,0
	c0.8-1.3,1.3-2.7,1.4-4.2c-0.3-0.5-0.5-1-0.7-1.5c-0.6-0.8-1.2-1.5-1.9-2.1c-0.2-0.2-0.4-0.4-0.6-0.6c-0.1-0.1-0.1-0.1-0.2-0.2
	c-0.3-0.6-0.3-1.3-0.2-1.9c0-0.2,0.1-0.3,0.1-0.5l0,0c-0.1-0.1-0.1-0.3-0.1-0.4c0-0.1,0.1-0.2,0.2-0.3c0.3-0.3,0.5-0.7,0.7-1.1
	c0.1-0.3,0.3-0.6,0.5-0.8c0.1-0.1,0.2-0.2,0.3-0.2c0.2-0.1,0.4-0.1,0.6,0c0.7,0.3,1.4,0.6,2.1,1c0.6,0.4,1.4,0.6,2.1,0.5
	c1.1-0.3,2.2-0.7,3.2-1.1c0.1-0.1,0.2-0.1,0.4-0.1c0.6-0.1,1.3,0.1,1.8,0.4c0,0,0.4,0.2,0.5,0.3c0.5,0.2,0.9,0.5,1.3,0.7
	c1.2,0.7,2.2,1.5,3.1,2.5c0.4,0.5,0.7,1.1,0.9,1.7c0.6,0.2,1,0.7,1,1.3c0,1.1,0.2,2.1,0.6,3.1c0.3,0.5,0.4,1,0.4,1.5
	c-0.1,0.6-0.6,1.1-1.1,1.3c0.2,0.4,0.3,0.8,0.5,1.2c0.4,0.9,1,1.7,1.8,2.3c0.3-1,0.4-2.1,0.5-3.2c0.4,0.2,0.6,0.6,0.7,1.1
	c0.9-1.7,0.5-3.9,0-5.8c-0.3-1.4-0.8-3.8-2-4.7l-0.1-0.1c-0.1-0.1-0.2-0.3-0.3-0.4c-1-1.7-1.8-3.5-2.4-5.4C33,16.7,32,15,30.5,13.7
	c-0.3-0.2-0.5-0.4-0.7-0.7c-0.2-0.3-0.3-0.6-0.3-0.9l0.2-0.1c0.7-0.4,0.9-1.4,1.4-2.1c0.3-0.4,0.8-0.6,1-1c0.5-0.7,0.5-1.7-0.1-2.4
	c-0.5-0.4-1.1-0.7-1.8-0.8c-1.4-0.3-2.8-1-4-1.8c-0.7-0.5-2.1-1.3-2.7-0.6l-0.2-0.2C22.7,2.7,22.1,2,21.4,2c-1.3,0-2.7-0.1-4-0.4
	c-0.3-0.1-0.6-0.1-0.9-0.1c-0.6,0.1-1.2,0.4-1.8,0.9C14.2,2.8,13.6,3,12.9,3c-2-0.4-3.8-1.1-5.6-2C6.7,0.6,6.1,0.3,5.4,0
	C5.1-0.1,4.8-0.1,4.5,0C3.7,0.3,3.7,1.1,3.4,1.7v0c-1.3,3,0,6.4,3,7.7c0,0,0.1,0,0.2,0.1c-0.8,0.6-1.8,0.1-2.7,0.1
	c-1.5,0-2.7,1.3-3.7,2.4c0,0.4,0.4,0.7,0.8,0.7c0.2,0,0.3-0.1,0.4-0.2c0.8,1.9,2.4,3.3,4.3,3.8c0.7,0.2,1.5,0.2,2.2,0.4
	c1.2,0.4,2.3,1.1,3,2.2c0.5,0.7,0.7,1.5,0.6,2.3c0,0.3-0.1,0.6-0.3,0.9c-0.3,0.3-0.6,0.6-0.9,0.9c-0.1,0-0.1,0.1-0.2,0.1h0.1
	c-0.4,0.2-0.8,0.4-1.2,0.4c0.6,0.3,1.3,0.5,2,0.4c-0.1,0.1-0.2,0.3-0.3,0.4c-2.2,1.5-3.7,3.9-4.1,6.6c0.3-0.6,0.9-0.9,1.5-1
	c0.1,0,0.2,0,0.3,0h0.2c0.3,0,0.5,0.1,0.5,0.6c0,0.2-0.1,0.4-0.3,0.5C7.7,32,7.2,33.5,7.6,35c0.8-0.7,1.4-1,2.3-0.5
	c-0.5,0.1-1,1.2-1.4,1.2c0.3,0.2,0.6,0.3,1,0.3c-0.4,0.2-0.7,0.5-1,0.8c-0.2,0.2-0.3,0.4-0.9,1c0.8,0.6,1.2,0.5,1.4,0.3
	c-0.2,0.2-0.4,0.4-0.6,0.7c-0.4,0.5-0.6,1-0.7,1.6c-0.2,1.1-0.2,2.2-0.1,3.3c0.5-0.6,1.2-1,2-1c0.2,0.1,0.3,0.1,0.5,0.1
	c0.1,0,0.2,0.1,0.4,0.1c0.1,0.1,0.2,0.2,0.3,0.2l0.1,0.1c-0.1,0.3,0.1,0.5-0.1,0.8c0.7,0.8,1.8,1.3,2.9,1.5c1.1,0.1,2.2,0,3.3-0.4
	c0.5-0.2,1.1-0.4,1.6-0.6L18.3,40.9z"/>
</svg>
