<svg id="Layer_1" data-name="Layer 1" xmlns="http://www.w3.org/2000/svg" viewBox="0 0 38.95 45.42"><defs><style>.cls-1{fill:#fff;}</style></defs><title>logo-thumb-white</title><path class="cls-1" d="M23.41,43.06a1.5,1.5,0,0,1-.93-.14,2.57,2.57,0,0,0,.39-.73h-.24c-.05,0-.31-.12-.51-.21h0l-.22-.11a7.43,7.43,0,0,0,2.75-3.51.2.2,0,0,0,0-.13.23.23,0,0,0-.15-.06l-.67-.07a1.9,1.9,0,0,0,.79-1.38h-.07l-.21,0a5.15,5.15,0,0,1-.84-.13s0,0,0-.05h0a8.05,8.05,0,0,0,1.36-4.24,6,6,0,0,1-.68-1.54,16.07,16.07,0,0,0-1.85-2.1,2.85,2.85,0,0,1-.57-.6,1.24,1.24,0,0,1-.18-.22,2.86,2.86,0,0,1-.17-1.9,1.54,1.54,0,0,1,.15-.5v0a.75.75,0,0,1-.06-.39.81.81,0,0,1,.16-.32,7.62,7.62,0,0,0,.71-1.1,3,3,0,0,1,.46-.81,1.09,1.09,0,0,1,.26-.22.89.89,0,0,1,.6,0,18.36,18.36,0,0,1,2.06,1,3.43,3.43,0,0,0,2.15.55,26.62,26.62,0,0,0,3.19-1.09,2,2,0,0,1,.37-.15,2.68,2.68,0,0,1,1.82.42s.37.17.55.27a14.2,14.2,0,0,1,1.33.74,13.64,13.64,0,0,1,3.13,2.48,6.44,6.44,0,0,1,.94,1.73,1.4,1.4,0,0,1,1,1.27,10.75,10.75,0,0,0,.58,3.12,2.86,2.86,0,0,1,.38,1.54,1.79,1.79,0,0,1-1.13,1.27c.19.39.34.8.52,1.2a6.81,6.81,0,0,0,1.78,2.34,13.28,13.28,0,0,0,.45-3.2,1.48,1.48,0,0,1,.66,1.06c.94-1.74.48-3.88,0-5.81-.35-1.38-.77-3.8-2-4.72l-.12-.08a2.4,2.4,0,0,0-.26-.42,23.48,23.48,0,0,1-2.41-5.35,11.24,11.24,0,0,0-3.11-4.92,4.19,4.19,0,0,1-.73-.66,1.88,1.88,0,0,1-.34-.94l.2-.1c.69-.41.86-1.43,1.39-2.07.32-.37.75-.59,1-1a2,2,0,0,0-.08-2.45,3.4,3.4,0,0,0-1.78-.76,12.14,12.14,0,0,1-4-1.79c-.74-.51-2.14-1.29-2.72-.64l-.22-.17c-.57-.42-1.12-1.13-1.83-1.11a16.58,16.58,0,0,1-4-.37,3.28,3.28,0,0,0-.88-.12,4.28,4.28,0,0,0-1.75.86A2.61,2.61,0,0,1,18,5.13a22.3,22.3,0,0,1-5.61-2,9.27,9.27,0,0,0-1.93-.93,1.62,1.62,0,0,0-.9,0c-.82.3-.78,1.1-1.08,1.72l0,.05a5.85,5.85,0,0,0,3.11,7.79c-.75.56-1.8.1-2.74.1-1.52,0-2.72,1.26-3.72,2.41a.77.77,0,0,0,1.27.5,6.37,6.37,0,0,0,4.32,3.75c.72.17,1.46.22,2.17.42a5.37,5.37,0,0,1,3,2.2,3.51,3.51,0,0,1,.65,2.27,2.27,2.27,0,0,1-.26.85,8,8,0,0,1-.89.86.92.92,0,0,1-.23.09l.08,0a2.1,2.1,0,0,1-1.19.37A3.39,3.39,0,0,0,16,26a4,4,0,0,1-.31.41A9.91,9.91,0,0,0,11.59,33a2,2,0,0,1,1.55-1,.46.46,0,0,1,.26,0h.18c.26,0,.54.14.52.59a.81.81,0,0,1-.26.52,4.4,4.4,0,0,0-1.2,4.08c.77-.69,1.43-1,2.32-.52-.49.11-1,1.21-1.45,1.22a1.68,1.68,0,0,0,1,.34,5.07,5.07,0,0,0-1,.81c-.19.16-.34.39-.9,1,.8.57,1.16.52,1.43.33a2.83,2.83,0,0,0-.55.69,3.22,3.22,0,0,0-.67,1.57,9.88,9.88,0,0,0-.05,3.3,2.49,2.49,0,0,1,2-1,1.37,1.37,0,0,0,.53.08,1.55,1.55,0,0,1,.36.13.4.4,0,0,0,.32.16l.06.08c-.11.26.09.53-.14.78a4.46,4.46,0,0,0,2.88,1.45,7.91,7.91,0,0,0,3.27-.37,11.77,11.77,0,0,0,1.59-.6Zm-8.6-2.56Z" transform="translate(-5.07 -2.18)"/></svg>